<svg xmlns="http://www.w3.org/2000/svg" width="60.581" height="60.581" viewBox="0 0 60.581 60.581">
  <path d="M30.29,0A30.291,30.291,0,1,0,51.709,8.872,30.29,30.29,0,0,0,30.29,0ZM15.545,21.913a4.59,4.59,0,0,1,4.416-2.83h20.6a4.653,4.653,0,0,1,4.435,2.726.821.821,0,0,1,.111.748.83.83,0,0,1-.547.525L30.9,30.2a1.14,1.14,0,0,1-1.134,0L15.926,23.02a.72.72,0,0,1-.381-1.107ZM45.35,37.6v0a4.616,4.616,0,0,1-4.629,3.9H19.949a4.678,4.678,0,0,1-4.622-3.472,4.768,4.768,0,0,1-.17-1.212V26.923c0-.854.532-1.169,1.3-.776Q22.912,29.5,29.35,32.873a1.878,1.878,0,0,0,1.91,0q6.411-3.361,12.838-6.664h0a1.457,1.457,0,0,1,.388-.159.721.721,0,0,1,.951.769v8.559A13.343,13.343,0,0,1,45.35,37.6Z" />
</svg>
