<svg xmlns="http://www.w3.org/2000/svg" width="62" height="62.001" viewBox="0 0 62 62.001">
  <path d="M41.383,23.2H25.817v1.765H41.383ZM25.949,45.571h15.24V34.193H25.949Zm2.616-8.9H38.573a1.178,1.178,0,1,1,0,2.356H28.565a1.178,1.178,0,1,1,0-2.356Zm0,4.055H38.573a1.178,1.178,0,1,1,0,2.356H28.565a1.178,1.178,0,1,1,0-2.356Zm-9.157-3.924h4.185V33.012a1.173,1.173,0,0,1,1.178-1.178H42.43a1.173,1.173,0,0,1,1.178,1.178v3.794h4.185V27.389H19.409ZM45.177,4.824A31.028,31.028,0,0,0,2.861,29.744,37.078,37.078,0,0,0,2.6,33.6,31,31,0,1,0,45.176,4.824ZM50.212,38.05a1.173,1.173,0,0,1-1.178,1.178H43.672v7.521a1.173,1.173,0,0,1-1.178,1.178H24.835a1.173,1.173,0,0,1-1.178-1.178V39.228H18.295a1.173,1.173,0,0,1-1.178-1.178V26.211a1.173,1.173,0,0,1,1.178-1.178h5.232v-3.01A1.173,1.173,0,0,1,24.7,20.846H42.691a1.173,1.173,0,0,1,1.178,1.178v3.01H49.1a1.173,1.173,0,0,1,1.178,1.178V38.05Z" transform="translate(-2.601 -2.602)" />
</svg>
