<svg xmlns="http://www.w3.org/2000/svg" width="62" height="62" viewBox="0 0 62 62">
  <path d="M31,0A31,31,0,1,0,52.92,9.08,31,31,0,0,0,31,0Zm2.344,43.325A2.84,2.84,0,0,1,30.288,46.5c-1.952,0-3.255-1.141-3.262-2.809,0-2.313,1.037-3.466,3.1-3.529,1.681-.048,3.429.981,3.219,3.163Zm4.34-14.308c-.882.683-1.8,1.3-2.691,1.971a4.371,4.371,0,0,0-1.971,3.906,2.485,2.485,0,0,1-1.787,2.48,2.739,2.739,0,0,1-3.211-.961,2.633,2.633,0,0,1-.366-1.284A8.614,8.614,0,0,1,31.186,27.9a25.753,25.753,0,0,0,2.807-2.48,3.093,3.093,0,0,0,.727-1.741,2.682,2.682,0,0,0-2.8-3,5.408,5.408,0,0,0-5.326,2.369,2.6,2.6,0,0,1-2.7,1.24A2.379,2.379,0,0,1,22,20.722a7.956,7.956,0,0,1,3.875-3.846A13.464,13.464,0,0,1,31.489,15.5a28.219,28.219,0,0,1,3.279.54,7.483,7.483,0,0,1,5.517,7.087h0a6.448,6.448,0,0,1-2.611,5.89Z" />
</svg>
